<mxfile host="app.diagrams.net" modified="2024-03-04T15:22:02.172Z" agent="Mozilla/5.0 (Windows NT 10.0; Win64; x64) AppleWebKit/537.36 (KHTML, like Gecko) Chrome/122.0.0.0 Safari/537.36" etag="mNdnNLOjZkZVp57CiYF_" version="24.0.1" type="device">
  <diagram id="R2lEEEUBdFMjLlhIrx00" name="Page-1">
    <mxGraphModel dx="1434" dy="738" grid="1" gridSize="10" guides="1" tooltips="1" connect="1" arrows="1" fold="1" page="1" pageScale="1" pageWidth="850" pageHeight="1100" math="0" shadow="0" extFonts="Permanent Marker^https://fonts.googleapis.com/css?family=Permanent+Marker">
      <root>
        <mxCell id="0" />
        <mxCell id="1" parent="0" />
        <mxCell id="UQtMQpSZXEJEkAjo1lNo-12" value="Suppliers" style="rounded=1;arcSize=10;whiteSpace=wrap;html=1;align=center;" parent="1" vertex="1">
          <mxGeometry x="45" y="416" width="100" height="40" as="geometry" />
        </mxCell>
        <mxCell id="UQtMQpSZXEJEkAjo1lNo-13" value="Customers" style="rounded=1;arcSize=10;whiteSpace=wrap;html=1;align=center;" parent="1" vertex="1">
          <mxGeometry x="495" y="605" width="100" height="40" as="geometry" />
        </mxCell>
        <mxCell id="UQtMQpSZXEJEkAjo1lNo-36" value="Brands" style="rounded=1;arcSize=10;whiteSpace=wrap;html=1;align=center;" parent="1" vertex="1">
          <mxGeometry x="30" y="20" width="100" height="40" as="geometry" />
        </mxCell>
        <mxCell id="UQtMQpSZXEJEkAjo1lNo-37" value="Categories" style="rounded=1;arcSize=10;whiteSpace=wrap;html=1;align=center;" parent="1" vertex="1">
          <mxGeometry x="690" y="115" width="110" height="50" as="geometry" />
        </mxCell>
        <mxCell id="UQtMQpSZXEJEkAjo1lNo-38" value="Products" style="rounded=1;arcSize=10;whiteSpace=wrap;html=1;align=center;" parent="1" vertex="1">
          <mxGeometry x="270" y="110" width="145" height="60" as="geometry" />
        </mxCell>
        <mxCell id="UQtMQpSZXEJEkAjo1lNo-39" value="Orders" style="rounded=1;arcSize=10;whiteSpace=wrap;html=1;align=center;" parent="1" vertex="1">
          <mxGeometry x="495" y="421" width="100" height="40" as="geometry" />
        </mxCell>
        <mxCell id="UQtMQpSZXEJEkAjo1lNo-40" value="Inventories" style="rounded=1;arcSize=10;whiteSpace=wrap;html=1;align=center;" parent="1" vertex="1">
          <mxGeometry x="40" y="215" width="140" height="60" as="geometry" />
        </mxCell>
        <mxCell id="UQtMQpSZXEJEkAjo1lNo-41" value="Product Inventories" style="rounded=1;arcSize=10;whiteSpace=wrap;html=1;align=center;" parent="1" vertex="1">
          <mxGeometry x="520" y="215" width="140" height="60" as="geometry" />
        </mxCell>
        <mxCell id="UQtMQpSZXEJEkAjo1lNo-42" value="Product Items" style="rounded=1;arcSize=10;whiteSpace=wrap;html=1;align=center;" parent="1" vertex="1">
          <mxGeometry x="257.5" y="300" width="130" height="50" as="geometry" />
        </mxCell>
        <mxCell id="UQtMQpSZXEJEkAjo1lNo-43" value="Has" style="shape=rhombus;perimeter=rhombusPerimeter;whiteSpace=wrap;html=1;align=center;" parent="1" vertex="1">
          <mxGeometry x="580" y="125" width="50" height="30" as="geometry" />
        </mxCell>
        <mxCell id="UQtMQpSZXEJEkAjo1lNo-44" value="" style="endArrow=none;html=1;rounded=0;entryX=0;entryY=0.5;entryDx=0;entryDy=0;exitX=1;exitY=0.5;exitDx=0;exitDy=0;" parent="1" source="UQtMQpSZXEJEkAjo1lNo-43" target="UQtMQpSZXEJEkAjo1lNo-37" edge="1">
          <mxGeometry relative="1" as="geometry">
            <mxPoint x="340" y="180" as="sourcePoint" />
            <mxPoint x="500" y="180" as="targetPoint" />
          </mxGeometry>
        </mxCell>
        <mxCell id="UQtMQpSZXEJEkAjo1lNo-45" value="1" style="resizable=0;html=1;whiteSpace=wrap;align=right;verticalAlign=bottom;" parent="UQtMQpSZXEJEkAjo1lNo-44" connectable="0" vertex="1">
          <mxGeometry x="1" relative="1" as="geometry" />
        </mxCell>
        <mxCell id="UQtMQpSZXEJEkAjo1lNo-46" value="Has" style="shape=rhombus;perimeter=rhombusPerimeter;whiteSpace=wrap;html=1;align=center;" parent="1" vertex="1">
          <mxGeometry x="55" y="125" width="50" height="30" as="geometry" />
        </mxCell>
        <mxCell id="UQtMQpSZXEJEkAjo1lNo-47" value="" style="endArrow=none;html=1;rounded=0;entryX=0.5;entryY=1;entryDx=0;entryDy=0;exitX=0.5;exitY=0;exitDx=0;exitDy=0;" parent="1" source="UQtMQpSZXEJEkAjo1lNo-46" target="UQtMQpSZXEJEkAjo1lNo-36" edge="1">
          <mxGeometry relative="1" as="geometry">
            <mxPoint x="640" y="185" as="sourcePoint" />
            <mxPoint x="695" y="110" as="targetPoint" />
            <Array as="points" />
          </mxGeometry>
        </mxCell>
        <mxCell id="UQtMQpSZXEJEkAjo1lNo-48" value="1" style="resizable=0;html=1;whiteSpace=wrap;align=right;verticalAlign=bottom;" parent="UQtMQpSZXEJEkAjo1lNo-47" connectable="0" vertex="1">
          <mxGeometry x="1" relative="1" as="geometry">
            <mxPoint y="20" as="offset" />
          </mxGeometry>
        </mxCell>
        <mxCell id="UQtMQpSZXEJEkAjo1lNo-50" value="" style="endArrow=none;html=1;rounded=0;entryX=1;entryY=0.5;entryDx=0;entryDy=0;exitX=0;exitY=0.5;exitDx=0;exitDy=0;" parent="1" source="UQtMQpSZXEJEkAjo1lNo-43" target="UQtMQpSZXEJEkAjo1lNo-38" edge="1">
          <mxGeometry relative="1" as="geometry">
            <mxPoint x="340" y="180" as="sourcePoint" />
            <mxPoint x="500" y="180" as="targetPoint" />
          </mxGeometry>
        </mxCell>
        <mxCell id="UQtMQpSZXEJEkAjo1lNo-51" value="N" style="resizable=0;html=1;whiteSpace=wrap;align=right;verticalAlign=bottom;" parent="UQtMQpSZXEJEkAjo1lNo-50" connectable="0" vertex="1">
          <mxGeometry x="1" relative="1" as="geometry">
            <mxPoint x="25" as="offset" />
          </mxGeometry>
        </mxCell>
        <mxCell id="UQtMQpSZXEJEkAjo1lNo-52" value="" style="endArrow=none;html=1;rounded=0;exitX=1;exitY=0.5;exitDx=0;exitDy=0;entryX=0;entryY=0.5;entryDx=0;entryDy=0;" parent="1" source="UQtMQpSZXEJEkAjo1lNo-46" target="UQtMQpSZXEJEkAjo1lNo-38" edge="1">
          <mxGeometry relative="1" as="geometry">
            <mxPoint x="590" y="185" as="sourcePoint" />
            <mxPoint x="448" y="150" as="targetPoint" />
          </mxGeometry>
        </mxCell>
        <mxCell id="UQtMQpSZXEJEkAjo1lNo-53" value="N" style="resizable=0;html=1;whiteSpace=wrap;align=right;verticalAlign=bottom;" parent="UQtMQpSZXEJEkAjo1lNo-52" connectable="0" vertex="1">
          <mxGeometry x="1" relative="1" as="geometry" />
        </mxCell>
        <mxCell id="UQtMQpSZXEJEkAjo1lNo-54" value="" style="endArrow=none;html=1;rounded=0;exitX=0.5;exitY=1;exitDx=0;exitDy=0;entryX=0.5;entryY=0;entryDx=0;entryDy=0;" parent="1" source="UQtMQpSZXEJEkAjo1lNo-38" target="UQtMQpSZXEJEkAjo1lNo-58" edge="1">
          <mxGeometry relative="1" as="geometry">
            <mxPoint x="340" y="180" as="sourcePoint" />
            <mxPoint x="380" y="250" as="targetPoint" />
          </mxGeometry>
        </mxCell>
        <mxCell id="UQtMQpSZXEJEkAjo1lNo-55" value="N" style="resizable=0;html=1;whiteSpace=wrap;align=left;verticalAlign=bottom;" parent="UQtMQpSZXEJEkAjo1lNo-54" connectable="0" vertex="1">
          <mxGeometry x="-1" relative="1" as="geometry">
            <mxPoint y="20" as="offset" />
          </mxGeometry>
        </mxCell>
        <mxCell id="UQtMQpSZXEJEkAjo1lNo-58" value="Has" style="shape=rhombus;perimeter=rhombusPerimeter;whiteSpace=wrap;html=1;align=center;" parent="1" vertex="1">
          <mxGeometry x="297.5" y="230" width="90" height="30" as="geometry" />
        </mxCell>
        <mxCell id="UQtMQpSZXEJEkAjo1lNo-59" value="" style="endArrow=none;html=1;rounded=0;exitX=1;exitY=0.5;exitDx=0;exitDy=0;entryX=0;entryY=0.5;entryDx=0;entryDy=0;" parent="1" source="UQtMQpSZXEJEkAjo1lNo-40" target="UQtMQpSZXEJEkAjo1lNo-58" edge="1">
          <mxGeometry relative="1" as="geometry">
            <mxPoint x="458" y="220" as="sourcePoint" />
            <mxPoint x="355" y="240" as="targetPoint" />
            <Array as="points" />
          </mxGeometry>
        </mxCell>
        <mxCell id="UQtMQpSZXEJEkAjo1lNo-60" value="M" style="resizable=0;html=1;whiteSpace=wrap;align=left;verticalAlign=bottom;" parent="UQtMQpSZXEJEkAjo1lNo-59" connectable="0" vertex="1">
          <mxGeometry x="-1" relative="1" as="geometry">
            <mxPoint as="offset" />
          </mxGeometry>
        </mxCell>
        <mxCell id="UQtMQpSZXEJEkAjo1lNo-61" value="&lt;div&gt;&lt;br&gt;&lt;/div&gt;&lt;div&gt;&lt;br&gt;&lt;/div&gt;" style="resizable=0;html=1;whiteSpace=wrap;align=right;verticalAlign=bottom;" parent="UQtMQpSZXEJEkAjo1lNo-59" connectable="0" vertex="1">
          <mxGeometry x="1" relative="1" as="geometry" />
        </mxCell>
        <mxCell id="UQtMQpSZXEJEkAjo1lNo-62" value="" style="endArrow=none;html=1;rounded=0;exitX=1;exitY=0.5;exitDx=0;exitDy=0;entryX=0;entryY=0.5;entryDx=0;entryDy=0;" parent="1" source="UQtMQpSZXEJEkAjo1lNo-58" target="UQtMQpSZXEJEkAjo1lNo-41" edge="1">
          <mxGeometry relative="1" as="geometry">
            <mxPoint x="340" y="180" as="sourcePoint" />
            <mxPoint x="500" y="180" as="targetPoint" />
          </mxGeometry>
        </mxCell>
        <mxCell id="UQtMQpSZXEJEkAjo1lNo-64" value="Has" style="shape=rhombus;perimeter=rhombusPerimeter;whiteSpace=wrap;html=1;align=center;" parent="1" vertex="1">
          <mxGeometry x="540" y="310" width="90" height="30" as="geometry" />
        </mxCell>
        <mxCell id="UQtMQpSZXEJEkAjo1lNo-76" value="" style="endArrow=none;html=1;rounded=0;entryX=0.5;entryY=0;entryDx=0;entryDy=0;exitX=0.457;exitY=0.983;exitDx=0;exitDy=0;exitPerimeter=0;" parent="1" source="UQtMQpSZXEJEkAjo1lNo-41" target="UQtMQpSZXEJEkAjo1lNo-64" edge="1">
          <mxGeometry relative="1" as="geometry">
            <mxPoint x="680" y="280" as="sourcePoint" />
            <mxPoint x="353" y="270" as="targetPoint" />
            <Array as="points" />
          </mxGeometry>
        </mxCell>
        <mxCell id="UQtMQpSZXEJEkAjo1lNo-77" value="M" style="resizable=0;html=1;whiteSpace=wrap;align=left;verticalAlign=bottom;" parent="UQtMQpSZXEJEkAjo1lNo-76" connectable="0" vertex="1">
          <mxGeometry x="-1" relative="1" as="geometry">
            <mxPoint x="-184" y="46" as="offset" />
          </mxGeometry>
        </mxCell>
        <mxCell id="UQtMQpSZXEJEkAjo1lNo-78" value="&lt;div&gt;&lt;br&gt;&lt;/div&gt;&lt;div&gt;&lt;br&gt;&lt;/div&gt;" style="resizable=0;html=1;whiteSpace=wrap;align=right;verticalAlign=bottom;" parent="UQtMQpSZXEJEkAjo1lNo-76" connectable="0" vertex="1">
          <mxGeometry x="1" relative="1" as="geometry" />
        </mxCell>
        <mxCell id="UQtMQpSZXEJEkAjo1lNo-79" value="" style="endArrow=none;html=1;rounded=0;entryX=0;entryY=0.5;entryDx=0;entryDy=0;exitX=1;exitY=0.5;exitDx=0;exitDy=0;" parent="1" source="UQtMQpSZXEJEkAjo1lNo-42" target="UQtMQpSZXEJEkAjo1lNo-64" edge="1">
          <mxGeometry relative="1" as="geometry">
            <mxPoint x="690" y="285" as="sourcePoint" />
            <mxPoint x="690" y="315" as="targetPoint" />
            <Array as="points" />
          </mxGeometry>
        </mxCell>
        <mxCell id="UQtMQpSZXEJEkAjo1lNo-80" value="1" style="resizable=0;html=1;whiteSpace=wrap;align=left;verticalAlign=bottom;" parent="UQtMQpSZXEJEkAjo1lNo-79" connectable="0" vertex="1">
          <mxGeometry x="-1" relative="1" as="geometry">
            <mxPoint x="203" y="-25" as="offset" />
          </mxGeometry>
        </mxCell>
        <mxCell id="UQtMQpSZXEJEkAjo1lNo-81" value="&lt;div&gt;&lt;br&gt;&lt;/div&gt;&lt;div&gt;&lt;br&gt;&lt;/div&gt;" style="resizable=0;html=1;whiteSpace=wrap;align=right;verticalAlign=bottom;" parent="UQtMQpSZXEJEkAjo1lNo-79" connectable="0" vertex="1">
          <mxGeometry x="1" relative="1" as="geometry" />
        </mxCell>
        <mxCell id="UQtMQpSZXEJEkAjo1lNo-88" value="Has" style="shape=rhombus;perimeter=rhombusPerimeter;whiteSpace=wrap;html=1;align=center;" parent="1" vertex="1">
          <mxGeometry x="57.5" y="310" width="75" height="30" as="geometry" />
        </mxCell>
        <mxCell id="UQtMQpSZXEJEkAjo1lNo-89" value="" style="endArrow=none;html=1;rounded=0;entryX=1;entryY=0.5;entryDx=0;entryDy=0;exitX=0;exitY=0.5;exitDx=0;exitDy=0;" parent="1" source="UQtMQpSZXEJEkAjo1lNo-42" target="UQtMQpSZXEJEkAjo1lNo-88" edge="1">
          <mxGeometry relative="1" as="geometry">
            <mxPoint x="420" y="380" as="sourcePoint" />
            <mxPoint x="353" y="415" as="targetPoint" />
            <Array as="points" />
          </mxGeometry>
        </mxCell>
        <mxCell id="UQtMQpSZXEJEkAjo1lNo-90" value="M" style="resizable=0;html=1;whiteSpace=wrap;align=left;verticalAlign=bottom;" parent="UQtMQpSZXEJEkAjo1lNo-89" connectable="0" vertex="1">
          <mxGeometry x="-1" relative="1" as="geometry">
            <mxPoint x="-17" as="offset" />
          </mxGeometry>
        </mxCell>
        <mxCell id="UQtMQpSZXEJEkAjo1lNo-91" value="&lt;div&gt;&lt;br&gt;&lt;/div&gt;&lt;div&gt;&lt;br&gt;&lt;/div&gt;" style="resizable=0;html=1;whiteSpace=wrap;align=right;verticalAlign=bottom;" parent="UQtMQpSZXEJEkAjo1lNo-89" connectable="0" vertex="1">
          <mxGeometry x="1" relative="1" as="geometry" />
        </mxCell>
        <mxCell id="UQtMQpSZXEJEkAjo1lNo-92" value="" style="endArrow=none;html=1;rounded=0;entryX=0.5;entryY=1;entryDx=0;entryDy=0;exitX=0.5;exitY=0;exitDx=0;exitDy=0;" parent="1" source="UQtMQpSZXEJEkAjo1lNo-12" target="UQtMQpSZXEJEkAjo1lNo-88" edge="1">
          <mxGeometry relative="1" as="geometry">
            <mxPoint x="670" y="610" as="sourcePoint" />
            <mxPoint x="685" y="495" as="targetPoint" />
            <Array as="points" />
          </mxGeometry>
        </mxCell>
        <mxCell id="UQtMQpSZXEJEkAjo1lNo-93" value="1" style="resizable=0;html=1;whiteSpace=wrap;align=left;verticalAlign=bottom;" parent="UQtMQpSZXEJEkAjo1lNo-92" connectable="0" vertex="1">
          <mxGeometry x="-1" relative="1" as="geometry">
            <mxPoint as="offset" />
          </mxGeometry>
        </mxCell>
        <mxCell id="UQtMQpSZXEJEkAjo1lNo-94" value="&lt;div&gt;&lt;br&gt;&lt;/div&gt;&lt;div&gt;&lt;br&gt;&lt;/div&gt;" style="resizable=0;html=1;whiteSpace=wrap;align=right;verticalAlign=bottom;" parent="UQtMQpSZXEJEkAjo1lNo-92" connectable="0" vertex="1">
          <mxGeometry x="1" relative="1" as="geometry" />
        </mxCell>
        <mxCell id="UQtMQpSZXEJEkAjo1lNo-98" value="Has" style="shape=rhombus;perimeter=rhombusPerimeter;whiteSpace=wrap;html=1;align=center;" parent="1" vertex="1">
          <mxGeometry x="277.5" y="426" width="90" height="30" as="geometry" />
        </mxCell>
        <mxCell id="UQtMQpSZXEJEkAjo1lNo-99" value="" style="endArrow=none;html=1;rounded=0;entryX=0.5;entryY=0;entryDx=0;entryDy=0;exitX=0.5;exitY=1;exitDx=0;exitDy=0;" parent="1" target="UQtMQpSZXEJEkAjo1lNo-98" edge="1" source="UQtMQpSZXEJEkAjo1lNo-42">
          <mxGeometry relative="1" as="geometry">
            <mxPoint x="360" y="350" as="sourcePoint" />
            <mxPoint x="95" y="346" as="targetPoint" />
            <Array as="points" />
          </mxGeometry>
        </mxCell>
        <mxCell id="UQtMQpSZXEJEkAjo1lNo-100" value="M" style="resizable=0;html=1;whiteSpace=wrap;align=left;verticalAlign=bottom;" parent="UQtMQpSZXEJEkAjo1lNo-99" connectable="0" vertex="1">
          <mxGeometry x="-1" relative="1" as="geometry">
            <mxPoint x="4" y="20" as="offset" />
          </mxGeometry>
        </mxCell>
        <mxCell id="UQtMQpSZXEJEkAjo1lNo-101" value="&lt;div&gt;&lt;br&gt;&lt;/div&gt;&lt;div&gt;&lt;br&gt;&lt;/div&gt;" style="resizable=0;html=1;whiteSpace=wrap;align=right;verticalAlign=bottom;" parent="UQtMQpSZXEJEkAjo1lNo-99" connectable="0" vertex="1">
          <mxGeometry x="1" relative="1" as="geometry" />
        </mxCell>
        <mxCell id="UQtMQpSZXEJEkAjo1lNo-102" value="" style="endArrow=none;html=1;rounded=0;exitX=0;exitY=0.5;exitDx=0;exitDy=0;entryX=1;entryY=0.5;entryDx=0;entryDy=0;" parent="1" source="UQtMQpSZXEJEkAjo1lNo-39" target="UQtMQpSZXEJEkAjo1lNo-98" edge="1">
          <mxGeometry relative="1" as="geometry">
            <mxPoint x="130" y="401" as="sourcePoint" />
            <mxPoint x="327" y="420" as="targetPoint" />
            <Array as="points" />
          </mxGeometry>
        </mxCell>
        <mxCell id="UQtMQpSZXEJEkAjo1lNo-103" value="1" style="resizable=0;html=1;whiteSpace=wrap;align=left;verticalAlign=bottom;" parent="UQtMQpSZXEJEkAjo1lNo-102" connectable="0" vertex="1">
          <mxGeometry x="-1" relative="1" as="geometry">
            <mxPoint as="offset" />
          </mxGeometry>
        </mxCell>
        <mxCell id="UQtMQpSZXEJEkAjo1lNo-104" value="&lt;div&gt;&lt;br&gt;&lt;/div&gt;&lt;div&gt;&lt;br&gt;&lt;/div&gt;" style="resizable=0;html=1;whiteSpace=wrap;align=right;verticalAlign=bottom;" parent="UQtMQpSZXEJEkAjo1lNo-102" connectable="0" vertex="1">
          <mxGeometry x="1" relative="1" as="geometry" />
        </mxCell>
        <mxCell id="UQtMQpSZXEJEkAjo1lNo-108" value="Can do" style="shape=rhombus;perimeter=rhombusPerimeter;whiteSpace=wrap;html=1;align=center;" parent="1" vertex="1">
          <mxGeometry x="500" y="510" width="90" height="30" as="geometry" />
        </mxCell>
        <mxCell id="UQtMQpSZXEJEkAjo1lNo-109" value="" style="endArrow=none;html=1;rounded=0;entryX=0.5;entryY=0;entryDx=0;entryDy=0;exitX=0.5;exitY=1;exitDx=0;exitDy=0;" parent="1" source="UQtMQpSZXEJEkAjo1lNo-39" target="UQtMQpSZXEJEkAjo1lNo-108" edge="1">
          <mxGeometry relative="1" as="geometry">
            <mxPoint x="320" y="500" as="sourcePoint" />
            <mxPoint x="95" y="486" as="targetPoint" />
            <Array as="points" />
          </mxGeometry>
        </mxCell>
        <mxCell id="UQtMQpSZXEJEkAjo1lNo-110" value="M" style="resizable=0;html=1;whiteSpace=wrap;align=left;verticalAlign=bottom;" parent="UQtMQpSZXEJEkAjo1lNo-109" connectable="0" vertex="1">
          <mxGeometry x="-1" relative="1" as="geometry">
            <mxPoint y="20" as="offset" />
          </mxGeometry>
        </mxCell>
        <mxCell id="UQtMQpSZXEJEkAjo1lNo-111" value="&lt;div&gt;&lt;br&gt;&lt;/div&gt;&lt;div&gt;&lt;br&gt;&lt;/div&gt;" style="resizable=0;html=1;whiteSpace=wrap;align=right;verticalAlign=bottom;" parent="UQtMQpSZXEJEkAjo1lNo-109" connectable="0" vertex="1">
          <mxGeometry x="1" relative="1" as="geometry" />
        </mxCell>
        <mxCell id="UQtMQpSZXEJEkAjo1lNo-112" value="" style="endArrow=none;html=1;rounded=0;exitX=0.5;exitY=0;exitDx=0;exitDy=0;entryX=0.5;entryY=1;entryDx=0;entryDy=0;" parent="1" source="UQtMQpSZXEJEkAjo1lNo-13" target="UQtMQpSZXEJEkAjo1lNo-108" edge="1">
          <mxGeometry relative="1" as="geometry">
            <mxPoint x="327" y="590" as="sourcePoint" />
            <mxPoint x="327" y="560" as="targetPoint" />
            <Array as="points" />
          </mxGeometry>
        </mxCell>
        <mxCell id="UQtMQpSZXEJEkAjo1lNo-113" value="1" style="resizable=0;html=1;whiteSpace=wrap;align=left;verticalAlign=bottom;" parent="UQtMQpSZXEJEkAjo1lNo-112" connectable="0" vertex="1">
          <mxGeometry x="-1" relative="1" as="geometry">
            <mxPoint as="offset" />
          </mxGeometry>
        </mxCell>
        <mxCell id="UQtMQpSZXEJEkAjo1lNo-114" value="&lt;div&gt;&lt;br&gt;&lt;/div&gt;&lt;div&gt;&lt;br&gt;&lt;/div&gt;" style="resizable=0;html=1;whiteSpace=wrap;align=right;verticalAlign=bottom;" parent="UQtMQpSZXEJEkAjo1lNo-112" connectable="0" vertex="1">
          <mxGeometry x="1" relative="1" as="geometry" />
        </mxCell>
        <mxCell id="UQtMQpSZXEJEkAjo1lNo-115" value="M" style="resizable=0;html=1;whiteSpace=wrap;align=left;verticalAlign=bottom;" parent="1" connectable="0" vertex="1">
          <mxGeometry x="370" y="240" as="geometry">
            <mxPoint x="135" y="10" as="offset" />
          </mxGeometry>
        </mxCell>
        <mxCell id="UQtMQpSZXEJEkAjo1lNo-116" value="Users" style="rounded=1;arcSize=10;whiteSpace=wrap;html=1;align=center;" parent="1" vertex="1">
          <mxGeometry x="45" y="605" width="100" height="40" as="geometry" />
        </mxCell>
        <mxCell id="UQtMQpSZXEJEkAjo1lNo-119" value="is" style="shape=rhombus;perimeter=rhombusPerimeter;whiteSpace=wrap;html=1;align=center;" parent="1" vertex="1">
          <mxGeometry x="310" y="610" width="90" height="30" as="geometry" />
        </mxCell>
        <mxCell id="UQtMQpSZXEJEkAjo1lNo-120" value="" style="endArrow=none;html=1;rounded=0;entryX=1;entryY=0.5;entryDx=0;entryDy=0;exitX=0;exitY=0.5;exitDx=0;exitDy=0;" parent="1" source="UQtMQpSZXEJEkAjo1lNo-13" target="UQtMQpSZXEJEkAjo1lNo-119" edge="1">
          <mxGeometry relative="1" as="geometry">
            <mxPoint x="245" y="520" as="sourcePoint" />
            <mxPoint x="-200" y="510" as="targetPoint" />
            <Array as="points" />
          </mxGeometry>
        </mxCell>
        <mxCell id="UQtMQpSZXEJEkAjo1lNo-121" value="M" style="resizable=0;html=1;whiteSpace=wrap;align=left;verticalAlign=bottom;" parent="UQtMQpSZXEJEkAjo1lNo-120" connectable="0" vertex="1">
          <mxGeometry x="-1" relative="1" as="geometry">
            <mxPoint x="-20" y="20" as="offset" />
          </mxGeometry>
        </mxCell>
        <mxCell id="UQtMQpSZXEJEkAjo1lNo-122" value="&lt;div&gt;&lt;br&gt;&lt;/div&gt;&lt;div&gt;&lt;br&gt;&lt;/div&gt;" style="resizable=0;html=1;whiteSpace=wrap;align=right;verticalAlign=bottom;" parent="UQtMQpSZXEJEkAjo1lNo-120" connectable="0" vertex="1">
          <mxGeometry x="1" relative="1" as="geometry" />
        </mxCell>
        <mxCell id="UQtMQpSZXEJEkAjo1lNo-123" value="" style="endArrow=none;html=1;rounded=0;exitX=1;exitY=0.5;exitDx=0;exitDy=0;entryX=0;entryY=0.5;entryDx=0;entryDy=0;" parent="1" source="UQtMQpSZXEJEkAjo1lNo-116" target="UQtMQpSZXEJEkAjo1lNo-119" edge="1">
          <mxGeometry relative="1" as="geometry">
            <mxPoint x="245" y="664" as="sourcePoint" />
            <mxPoint x="32" y="584" as="targetPoint" />
            <Array as="points" />
          </mxGeometry>
        </mxCell>
        <mxCell id="UQtMQpSZXEJEkAjo1lNo-124" value="1" style="resizable=0;html=1;whiteSpace=wrap;align=left;verticalAlign=bottom;" parent="UQtMQpSZXEJEkAjo1lNo-123" connectable="0" vertex="1">
          <mxGeometry x="-1" relative="1" as="geometry">
            <mxPoint as="offset" />
          </mxGeometry>
        </mxCell>
        <mxCell id="UQtMQpSZXEJEkAjo1lNo-125" value="&lt;div&gt;&lt;br&gt;&lt;/div&gt;&lt;div&gt;&lt;br&gt;&lt;/div&gt;" style="resizable=0;html=1;whiteSpace=wrap;align=right;verticalAlign=bottom;" parent="UQtMQpSZXEJEkAjo1lNo-123" connectable="0" vertex="1">
          <mxGeometry x="1" relative="1" as="geometry" />
        </mxCell>
        <mxCell id="UQtMQpSZXEJEkAjo1lNo-128" value="is" style="shape=rhombus;perimeter=rhombusPerimeter;whiteSpace=wrap;html=1;align=center;" parent="1" vertex="1">
          <mxGeometry x="50" y="540" width="90" height="30" as="geometry" />
        </mxCell>
        <mxCell id="UQtMQpSZXEJEkAjo1lNo-129" value="" style="endArrow=none;html=1;rounded=0;entryX=0.5;entryY=0;entryDx=0;entryDy=0;exitX=0.5;exitY=1;exitDx=0;exitDy=0;" parent="1" source="UQtMQpSZXEJEkAjo1lNo-12" target="UQtMQpSZXEJEkAjo1lNo-128" edge="1">
          <mxGeometry relative="1" as="geometry">
            <mxPoint x="257" y="550" as="sourcePoint" />
            <mxPoint x="-438" y="435" as="targetPoint" />
            <Array as="points" />
          </mxGeometry>
        </mxCell>
        <mxCell id="UQtMQpSZXEJEkAjo1lNo-130" value="M" style="resizable=0;html=1;whiteSpace=wrap;align=left;verticalAlign=bottom;" parent="UQtMQpSZXEJEkAjo1lNo-129" connectable="0" vertex="1">
          <mxGeometry x="-1" relative="1" as="geometry">
            <mxPoint x="-20" y="20" as="offset" />
          </mxGeometry>
        </mxCell>
        <mxCell id="UQtMQpSZXEJEkAjo1lNo-131" value="&lt;div&gt;&lt;br&gt;&lt;/div&gt;&lt;div&gt;&lt;br&gt;&lt;/div&gt;" style="resizable=0;html=1;whiteSpace=wrap;align=right;verticalAlign=bottom;" parent="UQtMQpSZXEJEkAjo1lNo-129" connectable="0" vertex="1">
          <mxGeometry x="1" relative="1" as="geometry" />
        </mxCell>
        <mxCell id="UQtMQpSZXEJEkAjo1lNo-132" value="" style="endArrow=none;html=1;rounded=0;exitX=0.5;exitY=0;exitDx=0;exitDy=0;entryX=0.5;entryY=1;entryDx=0;entryDy=0;" parent="1" source="UQtMQpSZXEJEkAjo1lNo-116" target="UQtMQpSZXEJEkAjo1lNo-128" edge="1">
          <mxGeometry relative="1" as="geometry">
            <mxPoint x="20" y="585" as="sourcePoint" />
            <mxPoint x="-206" y="509" as="targetPoint" />
            <Array as="points" />
          </mxGeometry>
        </mxCell>
        <mxCell id="UQtMQpSZXEJEkAjo1lNo-133" value="1" style="resizable=0;html=1;whiteSpace=wrap;align=left;verticalAlign=bottom;" parent="UQtMQpSZXEJEkAjo1lNo-132" connectable="0" vertex="1">
          <mxGeometry x="-1" relative="1" as="geometry">
            <mxPoint as="offset" />
          </mxGeometry>
        </mxCell>
        <mxCell id="UQtMQpSZXEJEkAjo1lNo-134" value="&lt;div&gt;&lt;br&gt;&lt;/div&gt;&lt;div&gt;&lt;br&gt;&lt;/div&gt;" style="resizable=0;html=1;whiteSpace=wrap;align=right;verticalAlign=bottom;" parent="UQtMQpSZXEJEkAjo1lNo-132" connectable="0" vertex="1">
          <mxGeometry x="1" relative="1" as="geometry" />
        </mxCell>
      </root>
    </mxGraphModel>
  </diagram>
</mxfile>
